<?xml version="1.0" encoding="utf-8"?>
<svg version="1.1" xmlns:xlink="http://www.w3.org/1999/xlink" width="290px" height="95px" xmlns="http://www.w3.org/2000/svg">
  <g transform="matrix(1 0 0 1 -90 318 )">
    <path d="M 90 -318  L 380 -318  L 380 -223  L 90 -223  L 90 -318  " fill-rule="nonzero" fill="#cccccc" stroke="none" />
    <path d="M 97 -311  L 373 -311  L 373 -230  L 97 -230  L 97 -311  " fill-rule="nonzero" fill="#ffffff" stroke="none" />
    <path d="M 247.925 -289.5  C 243.935 -289.5  240.8 -292.635  240.8 -296.625  C 240.8 -300.615  243.935 -303.75  247.925 -303.75  C 251.915 -303.75  255.05 -300.615  255.05 -296.625  C 255.05 -292.635  251.915 -289.5  247.925 -289.5  " fill-rule="nonzero" fill="#cccccc" stroke="none" />
    <path d="M 100 -233  L 100 -274.8  L 167.75 -293.8  L 262.6 -247.937931034483  L 316.8 -282.4  L 371 -247.937931034483  L 371 -233  L 100 -233  " fill-rule="nonzero" fill="#169bd5" stroke="none" />
  </g>
</svg>