<?xml version="1.0" encoding="utf-8"?>
<svg version="1.1" xmlns:xlink="http://www.w3.org/1999/xlink" width="12px" height="12px" viewBox="1078 145.5  12 12" xmlns="http://www.w3.org/2000/svg">
  <path d="M 1084 145.5  C 1087.36 145.5  1090 148.14  1090 151.5  C 1090 154.86  1087.36 157.5  1084 157.5  C 1080.64 157.5  1078 154.86  1078 151.5  C 1078 148.14  1080.64 145.5  1084 145.5  Z " fill-rule="nonzero" fill="#ffffff" stroke="none" />
  <path d="M 1084 146  C 1087.08 146  1089.5 148.42  1089.5 151.5  C 1089.5 154.58  1087.08 157  1084 157  C 1080.92 157  1078.5 154.58  1078.5 151.5  C 1078.5 148.42  1080.92 146  1084 146  Z " stroke-width="1" stroke="#797979" fill="none" />
  <path d="M 1084 154.5  C 1082.32 154.5  1081 153.18  1081 151.5  C 1081 149.82  1082.32 148.5  1084 148.5  C 1085.68 148.5  1087 149.82  1087 151.5  C 1087 153.18  1085.68 154.5  1084 154.5  " fill-rule="nonzero" fill="#797979" stroke="none" />
</svg>