<?xml version="1.0" encoding="utf-8"?>
<svg version="1.1" xmlns:xlink="http://www.w3.org/1999/xlink" width="12px" height="12px" viewBox="1078 343.5  12 12" xmlns="http://www.w3.org/2000/svg">
  <path d="M 1084 343.5  C 1087.36 343.5  1090 346.14  1090 349.5  C 1090 352.86  1087.36 355.5  1084 355.5  C 1080.64 355.5  1078 352.86  1078 349.5  C 1078 346.14  1080.64 343.5  1084 343.5  Z " fill-rule="nonzero" fill="#ffffff" stroke="none" />
  <path d="M 1084 344  C 1087.08 344  1089.5 346.42  1089.5 349.5  C 1089.5 352.58  1087.08 355  1084 355  C 1080.92 355  1078.5 352.58  1078.5 349.5  C 1078.5 346.42  1080.92 344  1084 344  Z " stroke-width="1" stroke="#797979" fill="none" />
  <path d="M 1084 352.5  C 1082.32 352.5  1081 351.18  1081 349.5  C 1081 347.82  1082.32 346.5  1084 346.5  C 1085.68 346.5  1087 347.82  1087 349.5  C 1087 351.18  1085.68 352.5  1084 352.5  " fill-rule="nonzero" fill="#797979" stroke="none" />
</svg>