<?xml version="1.0" encoding="utf-8"?>
<svg version="1.1" xmlns:xlink="http://www.w3.org/1999/xlink" width="24px" height="24px" xmlns="http://www.w3.org/2000/svg">
  <g transform="matrix(1 0 0 1 -645 -886 )">
    <path d="M 22.3630005437403 17.897  C 21.1270009542859 17.174  18.4610018398154 15.613  17.225002250361 14.889  C 16.8190023852165 14.651  16.3200025509627 14.656  15.9160026851539 14.896  L 13.8700033647463 16.115  C 13.4120035168741 16.388  12.8400037068676 16.356  12.4200038463734 16.028  C 11.6940040875191 15.461  10.5250044758102 14.507  9.50800481361342 13.49  C 8.49100515141668 12.473  7.53700546829407 11.304  6.97000565662687 10.578  C 6.64200576557423 10.158  6.61000577620324 9.586  6.88300568552449 9.128  L 8.1020052806256 7.082  C 8.34300520057586 6.678  8.34500519991154 6.175  8.10700527896481 5.769  L 5.10500627609892 0.641  C 4.81400637275649 0.145  4.236006564743 -0.0990000000000002  3.67700675041854 0.0380000000000003  C 3.13400693077957 0.17  2.42900716494997 0.492  1.6900074104137 1.232  C -0.623991820975932 3.546  -1.85299141275547 7.449  6.84900569681781 16.151  C 15.5510028063911 24.853  19.453001510316 23.625  21.7680007413735 21.31  C 22.5090004952455 20.569  22.8300003886232 19.863  22.9630003444464 19.319  C 23.0980002996053 18.761  22.8580003793228 18.187  22.3630005437403 17.897  Z " fill-rule="nonzero" fill="#ffffff" stroke="none" transform="matrix(1 0 0 1 645 886 )" />
  </g>
</svg>