<?xml version="1.0" encoding="utf-8"?>
<svg version="1.1" xmlns:xlink="http://www.w3.org/1999/xlink" width="12px" height="12px" viewBox="1203 343.5  12 12" xmlns="http://www.w3.org/2000/svg">
  <path d="M 1209 343.5  C 1212.36 343.5  1215 346.14  1215 349.5  C 1215 352.86  1212.36 355.5  1209 355.5  C 1205.64 355.5  1203 352.86  1203 349.5  C 1203 346.14  1205.64 343.5  1209 343.5  Z " fill-rule="nonzero" fill="#ffffff" stroke="none" />
  <path d="M 1209 344  C 1212.08 344  1214.5 346.42  1214.5 349.5  C 1214.5 352.58  1212.08 355  1209 355  C 1205.92 355  1203.5 352.58  1203.5 349.5  C 1203.5 346.42  1205.92 344  1209 344  Z " stroke-width="1" stroke="#797979" fill="none" />
  <path d="M 1209 352.5  C 1207.32 352.5  1206 351.18  1206 349.5  C 1206 347.82  1207.32 346.5  1209 346.5  C 1210.68 346.5  1212 347.82  1212 349.5  C 1212 351.18  1210.68 352.5  1209 352.5  " fill-rule="nonzero" fill="#797979" stroke="none" />
</svg>